<svg width="20" height="20" viewBox="0 0 20 20" fill="none" xmlns="http://www.w3.org/2000/svg">
<path d="M13.4167 11.0835L12.2084 9.87516C12.3334 9.22239 12.1459 8.61127 11.6459 8.04183C11.1459 7.47238 10.5 7.25016 9.70837 7.37516L8.50004 6.16683C8.73615 6.05572 8.97574 5.97239 9.21879 5.91683C9.46185 5.86127 9.72226 5.8335 10 5.8335C11.0417 5.8335 11.9271 6.19808 12.6563 6.92725C13.3855 7.65641 13.75 8.54183 13.75 9.5835C13.75 9.86127 13.7223 10.1217 13.6667 10.3647C13.6112 10.6078 13.5278 10.8474 13.4167 11.0835ZM16.0834 13.7085L14.875 12.5418C15.4028 12.1391 15.8716 11.6981 16.2813 11.2189C16.691 10.7397 17.0417 10.1946 17.3334 9.5835C16.6389 8.18072 15.6424 7.06613 14.3438 6.23975C13.0452 5.41336 11.5973 5.00016 10 5.00016C9.59726 5.00016 9.20143 5.02794 8.81254 5.0835C8.42365 5.13905 8.04171 5.22239 7.66671 5.3335L6.37504 4.04183C6.94449 3.80572 7.52782 3.62864 8.12504 3.51058C8.72226 3.39252 9.34726 3.3335 10 3.3335C12.0973 3.3335 13.9653 3.91336 15.6042 5.07308C17.2431 6.2328 18.4306 7.73627 19.1667 9.5835C18.8473 10.4029 18.4271 11.1634 17.9063 11.8647C17.3855 12.5661 16.7778 13.1807 16.0834 13.7085ZM16.5 18.8335L13 15.3752C12.5139 15.5279 12.0243 15.6425 11.5313 15.7189C11.0382 15.7953 10.5278 15.8335 10 15.8335C7.90282 15.8335 6.03476 15.2536 4.39587 14.0939C2.75699 12.9342 1.56949 11.4307 0.833374 9.5835C1.12504 8.84739 1.4931 8.16336 1.93754 7.53141C2.38199 6.89947 2.88893 6.3335 3.45837 5.8335L1.16671 3.50016L2.33337 2.3335L17.6667 17.6668L16.5 18.8335ZM4.62504 7.00016C4.22226 7.36127 3.85421 7.75711 3.52087 8.18766C3.18754 8.61822 2.90282 9.0835 2.66671 9.5835C3.36115 10.9863 4.35768 12.1009 5.65629 12.9272C6.9549 13.7536 8.40282 14.1668 10 14.1668C10.2778 14.1668 10.5487 14.1495 10.8125 14.1147C11.0764 14.08 11.3473 14.0418 11.625 14.0002L10.875 13.2085C10.7223 13.2502 10.5764 13.2814 10.4375 13.3022C10.2987 13.3231 10.1528 13.3335 10 13.3335C8.95837 13.3335 8.07296 12.9689 7.34379 12.2397C6.61462 11.5106 6.25004 10.6252 6.25004 9.5835C6.25004 9.43072 6.26046 9.28489 6.28129 9.146C6.30212 9.00711 6.33337 8.86127 6.37504 8.7085L4.62504 7.00016Z" fill="#7F7F7F"/>
</svg>
