<svg width="20" height="20" viewBox="0 0 20 20" fill="none" xmlns="http://www.w3.org/2000/svg">
<path d="M10.0001 13.7295C11.3751 12.6184 12.4133 11.5489 13.1147 10.5212C13.8161 9.49338 14.1667 8.5281 14.1667 7.62533C14.1667 6.37533 13.7779 5.34755 13.0001 4.54199C12.2223 3.73644 11.2223 3.33366 10.0001 3.33366C8.77786 3.33366 7.77786 3.73644 7.00008 4.54199C6.2223 5.34755 5.83341 6.37533 5.83341 7.62533C5.83341 8.5281 6.18411 9.49338 6.8855 10.5212C7.58689 11.5489 8.62508 12.6184 10.0001 13.7295ZM10.0001 15.8337C8.04175 14.3892 6.57994 12.9864 5.61466 11.6253C4.64939 10.2642 4.16675 8.93088 4.16675 7.62533C4.16675 5.88921 4.70841 4.46213 5.79175 3.34408C6.87508 2.22602 8.27786 1.66699 10.0001 1.66699C11.7223 1.66699 13.1251 2.22602 14.2084 3.34408C15.2917 4.46213 15.8334 5.88921 15.8334 7.62533C15.8334 8.93088 15.3508 10.2642 14.3855 11.6253C13.4202 12.9864 11.9584 14.3892 10.0001 15.8337ZM10.0001 9.16699C10.4584 9.16699 10.8508 9.0038 11.1772 8.67741C11.5036 8.35102 11.6667 7.95866 11.6667 7.50033C11.6667 7.04199 11.5036 6.64963 11.1772 6.32324C10.8508 5.99685 10.4584 5.83366 10.0001 5.83366C9.54175 5.83366 9.14939 5.99685 8.823 6.32324C8.49661 6.64963 8.33342 7.04199 8.33342 7.50033C8.33342 7.95866 8.49661 8.35102 8.823 8.67741C9.14939 9.0038 9.54175 9.16699 10.0001 9.16699ZM4.16675 18.3337V16.667H15.8334V18.3337H4.16675Z" fill="#3A63CD"/>
</svg>
