<svg width="163" height="76" viewBox="0 0 163 76" fill="none" xmlns="http://www.w3.org/2000/svg">
<path d="M30.7573 62H20.6773V23.336C20.6773 22.952 20.5333 22.616 20.2453 22.328C20.0053 22.04 19.6933 21.896 19.3093 21.896H15.4213C15.0373 21.896 14.7013 22.04 14.4133 22.328C14.1733 22.616 14.0533 22.952 14.0533 23.336V62H3.97331V24.2C3.97331 17.864 6.94931 14.696 12.9013 14.696H21.8293C27.7813 14.696 30.7573 17.864 30.7573 24.2V62ZM64.9461 24.2V53.216C64.9461 59.552 61.9701 62.72 56.0181 62.72H46.4421C40.4901 62.72 37.5141 59.552 37.5141 53.216V24.2C37.5141 17.864 40.4901 14.696 46.4421 14.696H56.0181C61.9701 14.696 64.9461 17.864 64.9461 24.2ZM54.8661 54.368V22.976C54.8661 22.592 54.7221 22.256 54.4341 21.968C54.1941 21.68 53.8821 21.536 53.4981 21.536H48.9621C48.5781 21.536 48.2421 21.68 47.9541 21.968C47.7141 22.256 47.5941 22.592 47.5941 22.976V54.368C47.5941 54.752 47.7141 55.088 47.9541 55.376C48.2421 55.664 48.5781 55.808 48.9621 55.808H53.4981C53.8821 55.808 54.1941 55.664 54.4341 55.376C54.7221 55.088 54.8661 54.752 54.8661 54.368ZM84.4131 43.64H80.8131C74.8611 43.64 71.8851 40.472 71.8851 34.136V24.2C71.8851 17.864 74.8611 14.696 80.8131 14.696H89.3091C95.2611 14.696 98.2371 17.864 98.2371 24.2V53.216C98.2371 59.552 95.2611 62.72 89.3091 62.72H81.5331C75.5811 62.72 72.6051 59.552 72.6051 53.216V49.76H81.8211V53.432C81.8211 53.816 81.9411 54.152 82.1811 54.44C82.4691 54.728 82.8051 54.872 83.1891 54.872H87.8691C88.2531 54.872 88.5651 54.728 88.8051 54.44C89.0931 54.152 89.2371 53.816 89.2371 53.432V42.704C87.9411 43.328 86.3331 43.64 84.4131 43.64ZM80.8131 24.992V33.344C80.8131 33.728 80.9331 34.064 81.1731 34.352C81.4611 34.64 81.7971 34.784 82.1811 34.784H87.8691C88.2531 34.784 88.5651 34.64 88.8051 34.352C89.0931 34.064 89.2371 33.728 89.2371 33.344V24.992C89.2371 24.608 89.0931 24.272 88.8051 23.984C88.5651 23.696 88.2531 23.552 87.8691 23.552H82.1811C81.7971 23.552 81.4611 23.696 81.1731 23.984C80.9331 24.272 80.8131 24.608 80.8131 24.992Z" fill="#3A63CD"/>
<path d="M121.673 48.5H124.533V50.32H121.673V60.08H119.673V41.52H121.673V48.5ZM113.013 45.02C113.013 46.58 112.833 48.0733 112.473 49.5L117.753 56.1L116.253 57.36L111.733 51.7C110.879 53.74 109.559 55.6933 107.773 57.56L106.353 56.24C107.979 54.5467 109.166 52.8067 109.913 51.02C110.673 49.22 111.053 47.22 111.053 45.02V42.6H113.013V45.02ZM140.638 41.52V45.4H143.498V47.22H140.638V51.64H138.638V41.52H140.638ZM130.838 48.18C129.918 49.5133 128.424 50.7333 126.358 51.84L125.418 50.24C127.031 49.3333 128.218 48.4 128.978 47.44C129.738 46.4667 130.118 45.38 130.118 44.18H126.138V42.4H136.058V44.18H132.058C132.058 45.0067 131.924 45.8 131.658 46.56L136.778 49.82L135.778 51.44L130.838 48.18ZM136.658 52.62C137.538 52.62 138.311 52.7867 138.978 53.12C139.644 53.44 140.158 53.8933 140.518 54.48C140.878 55.0533 141.058 55.7067 141.058 56.44C141.058 57.1867 140.878 57.8467 140.518 58.42C140.158 59.0067 139.644 59.46 138.978 59.78C138.311 60.1133 137.538 60.28 136.658 60.28H132.738C131.871 60.28 131.104 60.1133 130.438 59.78C129.771 59.46 129.258 59.0067 128.898 58.42C128.538 57.8467 128.358 57.1867 128.358 56.44C128.358 55.7067 128.538 55.0533 128.898 54.48C129.258 53.8933 129.771 53.44 130.438 53.12C131.104 52.7867 131.871 52.62 132.738 52.62H136.658ZM136.338 58.48C137.218 58.48 137.891 58.2933 138.358 57.92C138.838 57.5467 139.078 57.0533 139.078 56.44C139.078 55.8267 138.838 55.3333 138.358 54.96C137.891 54.5867 137.218 54.4 136.338 54.4H133.078C132.198 54.4 131.518 54.5867 131.038 54.96C130.571 55.3333 130.338 55.8267 130.338 56.44C130.338 57.0533 130.571 57.5467 131.038 57.92C131.518 58.2933 132.198 58.48 133.078 58.48H136.338ZM160.642 51.54H158.662V41.52H160.642V51.54ZM145.942 50.9V42.4H147.962V49.08H149.502C150.569 49.08 151.729 49.0267 152.982 48.92C154.236 48.8133 155.456 48.6667 156.642 48.48L156.882 50.24C155.722 50.44 154.469 50.6 153.122 50.72C151.789 50.84 150.469 50.9 149.162 50.9H145.942ZM160.642 60.08H148.382V52.72H160.642V60.08ZM150.362 54.48V58.28H158.662V54.48H150.362Z" fill="#3A63CD"/>
</svg>
