<svg width="96" height="49" viewBox="0 0 96 49" fill="none" xmlns="http://www.w3.org/2000/svg">
<path d="M27.7573 48H17.6773V9.336C17.6773 8.952 17.5333 8.616 17.2453 8.328C17.0053 8.04 16.6933 7.896 16.3093 7.896H12.4213C12.0373 7.896 11.7013 8.04 11.4133 8.328C11.1733 8.616 11.0533 8.952 11.0533 9.336V48H0.973313V10.2C0.973313 3.864 3.94931 0.696 9.90131 0.696H18.8293C24.7813 0.696 27.7573 3.864 27.7573 10.2V48ZM61.9461 10.2V39.216C61.9461 45.552 58.9701 48.72 53.0181 48.72H43.4421C37.4901 48.72 34.5141 45.552 34.5141 39.216V10.2C34.5141 3.864 37.4901 0.696 43.4421 0.696H53.0181C58.9701 0.696 61.9461 3.864 61.9461 10.2ZM51.8661 40.368V8.976C51.8661 8.592 51.7221 8.256 51.4341 7.968C51.1941 7.68 50.8821 7.536 50.4981 7.536H45.9621C45.5781 7.536 45.2421 7.68 44.9541 7.968C44.7141 8.256 44.5941 8.592 44.5941 8.976V40.368C44.5941 40.752 44.7141 41.088 44.9541 41.376C45.2421 41.664 45.5781 41.808 45.9621 41.808H50.4981C50.8821 41.808 51.1941 41.664 51.4341 41.376C51.7221 41.088 51.8661 40.752 51.8661 40.368ZM81.4131 29.64H77.8131C71.8611 29.64 68.8851 26.472 68.8851 20.136V10.2C68.8851 3.864 71.8611 0.696 77.8131 0.696H86.3091C92.2611 0.696 95.2371 3.864 95.2371 10.2V39.216C95.2371 45.552 92.2611 48.72 86.3091 48.72H78.5331C72.5811 48.72 69.6051 45.552 69.6051 39.216V35.76H78.8211V39.432C78.8211 39.816 78.9411 40.152 79.1811 40.44C79.4691 40.728 79.8051 40.872 80.1891 40.872H84.8691C85.2531 40.872 85.5651 40.728 85.8051 40.44C86.0931 40.152 86.2371 39.816 86.2371 39.432V28.704C84.9411 29.328 83.3331 29.64 81.4131 29.64ZM77.8131 10.992V19.344C77.8131 19.728 77.9331 20.064 78.1731 20.352C78.4611 20.64 78.7971 20.784 79.1811 20.784H84.8691C85.2531 20.784 85.5651 20.64 85.8051 20.352C86.0931 20.064 86.2371 19.728 86.2371 19.344V10.992C86.2371 10.608 86.0931 10.272 85.8051 9.984C85.5651 9.696 85.2531 9.552 84.8691 9.552H79.1811C78.7971 9.552 78.4611 9.696 78.1731 9.984C77.9331 10.272 77.8131 10.608 77.8131 10.992Z" fill="#3A63CD"/>
</svg>
