<svg width="20" height="20" viewBox="0 0 20 20" fill="none" xmlns="http://www.w3.org/2000/svg">
<path d="M10 13.3333C11.0417 13.3333 11.9271 12.9687 12.6563 12.2396C13.3855 11.5104 13.75 10.625 13.75 9.58333C13.75 8.54166 13.3855 7.65625 12.6563 6.92708C11.9271 6.19791 11.0417 5.83333 10 5.83333C8.95837 5.83333 8.07296 6.19791 7.34379 6.92708C6.61462 7.65625 6.25004 8.54166 6.25004 9.58333C6.25004 10.625 6.61462 11.5104 7.34379 12.2396C8.07296 12.9687 8.95837 13.3333 10 13.3333ZM10 11.8333C9.37504 11.8333 8.84379 11.6146 8.40629 11.1771C7.96879 10.7396 7.75004 10.2083 7.75004 9.58333C7.75004 8.95833 7.96879 8.42708 8.40629 7.98958C8.84379 7.55208 9.37504 7.33333 10 7.33333C10.625 7.33333 11.1563 7.55208 11.5938 7.98958C12.0313 8.42708 12.25 8.95833 12.25 9.58333C12.25 10.2083 12.0313 10.7396 11.5938 11.1771C11.1563 11.6146 10.625 11.8333 10 11.8333ZM10 15.8333C7.97226 15.8333 6.12504 15.2674 4.45837 14.1354C2.79171 13.0035 1.58337 11.4861 0.833374 9.58333C1.58337 7.68055 2.79171 6.16319 4.45837 5.03124C6.12504 3.8993 7.97226 3.33333 10 3.33333C12.0278 3.33333 13.875 3.8993 15.5417 5.03124C17.2084 6.16319 18.4167 7.68055 19.1667 9.58333C18.4167 11.4861 17.2084 13.0035 15.5417 14.1354C13.875 15.2674 12.0278 15.8333 10 15.8333ZM10 14.1667C11.5695 14.1667 13.0105 13.7535 14.323 12.9271C15.6355 12.1007 16.6389 10.9861 17.3334 9.58333C16.6389 8.18055 15.6355 7.06597 14.323 6.23958C13.0105 5.41319 11.5695 4.99999 10 4.99999C8.4306 4.99999 6.98962 5.41319 5.67712 6.23958C4.36462 7.06597 3.36115 8.18055 2.66671 9.58333C3.36115 10.9861 4.36462 12.1007 5.67712 12.9271C6.98962 13.7535 8.4306 14.1667 10 14.1667Z" fill="#7F7F7F"/>
</svg>
